<?xml version="1.0" standalone="no"?>
<!DOCTYPE svg PUBLIC "-//W3C//DTD SVG 20010904//EN"
 "http://www.w3.org/TR/2001/REC-SVG-20010904/DTD/svg10.dtd">
<svg version="1.0" xmlns="http://www.w3.org/2000/svg"
 width="1000.000000pt" height="1000.000000pt" viewBox="0 0 1000.000000 1000.000000"
 preserveAspectRatio="xMidYMid meet">
<metadata>
Created by potrace 1.14, written by Peter Selinger 2001-2017
</metadata>
<g transform="translate(0.000000,1000.000000) scale(0.100000,-0.100000)"
fill="#000000" stroke="none">
<path d="M4867 9585 c-1 -1 -63 -5 -137 -9 -171 -9 -203 -12 -380 -37 -566
-80 -1131 -274 -1605 -549 -49 -29 -105 -61 -124 -72 -19 -11 -86 -53 -149
-95 -425 -277 -824 -653 -1143 -1078 -336 -446 -598 -979 -749 -1520 -22 -77
-41 -151 -44 -165 -3 -14 -12 -55 -20 -91 -8 -36 -17 -79 -20 -94 -3 -16 -10
-51 -15 -79 -6 -28 -12 -67 -15 -86 -9 -63 -35 -264 -41 -315 -11 -83 -14
-634 -5 -732 21 -229 27 -273 56 -443 144 -843 515 -1615 1093 -2275 156 -178
491 -484 685 -627 45 -33 88 -65 96 -71 33 -26 271 -177 360 -229 444 -258
981 -454 1480 -541 150 -27 180 -31 290 -42 36 -3 79 -8 95 -10 68 -9 269 -18
395 -19 138 0 439 11 475 18 11 2 47 7 80 10 616 70 1270 290 1800 604 52 31
307 198 370 242 210 149 545 451 731 660 412 465 744 1042 933 1620 159 488
228 921 228 1430 0 350 -22 586 -87 911 -221 1104 -857 2108 -1760 2778 -707
525 -1547 834 -2433 897 -89 6 -434 13 -440 9z"/>
</g>
</svg>
